# xmcd
#
# Track frame offsets: 
#        150
#        15506
#        29366
#        41030
#        55835
#        71203
#        84768
#        98820
#        111476
#        123939
#        137139
#        148495
#        160835
#        173128
#        185226
#        199934
#        212817
#        225217
#        237138
#        250570
#
# Disc length: 3517 seconds
#
# Revision: 1
# Processed by: cddbd v1.5.2PL0 Copyright (c) Steve Scherf et al.
# Submitted via: ExactAudioCopyFreeDBPlugin 1.0
#
DISCID=1a0dbb14
DTITLE=Various Artist - Shout It Out Sister - The Great Female Singer
DTITLE=s CD 2
DYEAR=2006
DGENRE=Blues
TTITLE0=Lil Green - Romance In The Dark
TTITLE1=Lee Wiley - Let's Fly Away
TTITLE2=Sister Rosetta Tharpe - What Is The Soul Of A Man
TTITLE3=Peggy Lee - Blues In The Night
TTITLE4=Lena Horne - Stormy Weather
TTITLE5=Miss Rhapsody - The Night Before Judgement Day
TTITLE6=Albinia Jones - Evil Gal Blues
TTITLE7=Julia Lee - Gotta Gimme Whatcha Got
TTITLE8=Mabel Scott - Just Give Me A Man
TTITLE9=Little Esther - Wedding Boogie
TTITLE10=Helen Humes - Helen's Advice
TTITLE11=Helen Humes - Airplane Blues
TTITLE12=Marilyn Scott - Beer Bottle Boogies
TTITLE13=LaVern Baker - I Want To Rock
TTITLE14=Ruth Brown - 5-10-15 Hours
TTITLE15=Big Mama Thornton - Hound Dog
TTITLE16=Connie Allen - Rocket 69
TTITLE17=Varetta Dillard - Easy, Easy Baby
TTITLE18=Dinah Washington - Big Long Slidin' Thing
TTITLE19=Etta James - Roll With Me Henry
EXTD=
EXTT0=
EXTT1=
EXTT2=
EXTT3=
EXTT4=
EXTT5=
EXTT6=
EXTT7=
EXTT8=
EXTT9=
EXTT10=
EXTT11=
EXTT12=
EXTT13=
EXTT14=
EXTT15=
EXTT16=
EXTT17=
EXTT18=
EXTT19=
PLAYORDER=
